<svg id="Capa_1" enable-background="new 0 0 503.481 503.481" height="512" viewBox="0 0 503.481 503.481" width="512" xmlns="http://www.w3.org/2000/svg"><g><path d="m438.526 45.299-52.422 52.096h-42.277l-22.081 21.476 75.559 75.559 13.087-20.292 3.271-57.826 35.612-35.612 12.125-15.274z" fill="#efedef"/><path d="m334.246 110.362 53.109-3.004c3.038-.172 5.906-1.456 8.058-3.608l32.272-32.272 11.258-12.634 16.297 14.34 6.16-7.76-29.206-25.699-11.258 12.634-35.612 35.612-57.826 3.271-16.689 16.689 12.934 12.934z" fill="#e5e1e5"/><g><g><path d="m9.346 503.481c-1.934 0-3.865-.743-5.333-2.226-2.912-2.945-2.886-7.694.06-10.606l90.807-89.807 40.396-40.397c2.93-2.929 7.678-2.929 10.607 0s2.929 7.678 0 10.606l-40.427 40.426-90.837 89.836c-1.461 1.446-3.368 2.168-5.273 2.168z" fill="#efedef"/></g></g><path d="m117.254 347.859-12.406 12.005-16.416 16.416c-5.019 5.019-5.019 13.156 0 18.175l23.441 23.441c5.019 5.019 13.156 5.019 18.175 0l16.416-16.416 11.471-14.545z" fill="#d7d0d6"/><path d="m110.125 398.164c-6.14-6.141-6.14-16.096 0-22.237l14.384-14.385 3.482-3.369-10.738-10.314-12.406 12.005-16.416 16.416c-5.019 5.019-5.019 13.156 0 18.175l23.441 23.441c4.986 4.986 13.048 5.013 18.074.091z" fill="#c9bfc8"/><path d="m326.819 123.943-172.79 162.292-49.013 49.013-3.141 16.854c-.47 2.53.33 5.12 2.15 6.94l43.26 43.26c1.82 1.82 4.41 2.62 6.94 2.15l34.61-6.45c2.45-.46 4.71-1.65 6.48-3.41l183.46-183.46 10.882-24.35z" fill="#f9f7f8"/><path d="m321.57 118.694-3.775-3.775-22.599 12.633-158.684 158.683h17.517l-9.351 9.351h34.82l111.406-111.406c7.06-7.06 18.505-7.06 25.565 0l44.629 44.629 17.677-17.677 10.882-24.35z" fill="#efedef"/><path d="m419.432 183.178-74.247-74.247-1.358-.135-6.18-1.889-7.728 1.545-19.111 15.112-2.183 12.708 3.95 6.869v1.79l72.552 72.552c5.479 5.479 14.362 5.479 19.841 0l14.464-14.463c5.479-5.479 5.479-14.363 0-19.842z" fill="#d7d0d6"/><path d="m316.075 128.59 14.464-14.463c5.479-5.479 14.362-5.479 19.841 0l-27.231-27.231c-5.479-5.479-14.362-5.479-19.841 0l-14.464 14.463c-5.479 5.479-5.479 14.362 0 19.841l27.231 27.231c-5.479-5.479-5.479-14.362 0-19.841z" fill="#c9bfc8"/><path d="m499.008 68.826-45.148-45.148c-.003-.002-8.925-6.142-9.421-6.142s-4.628-3.802-4.628-3.802l-24.3 25.291 4.133 10.579-.559.904 49.12 49.12c3.503 3.503 9.183 3.503 12.687 0l18.117-18.117c3.502-3.502 3.502-9.182-.001-12.685z" fill="#d7d0d6"/><path d="m423.057 41.795 18.117-18.117c3.503-3.503 9.183-3.503 12.687 0l-21.051-21.05c-3.503-3.503-9.183-3.503-12.687 0l-18.117 18.117c-3.503 3.503-3.503 9.183 0 12.687l21.05 21.05c-3.503-3.504-3.503-9.184.001-12.687z" fill="#c9bfc8"/><path d="m232.436 299.131 56.719-56.719-25.24-25.24-81.959 81.959z" fill="#efedef"/><path d="m305.155 283.592-145.314-.881-19.686-.119 30.6 5.205-43.364 37.088-10.27 31.097 5.676 21.831 24.489 24.489c1.82 1.82 4.41 2.62 6.94 2.15l34.61-6.45c2.45-.46 4.71-1.65 6.48-3.41l110.42-110.42z" fill="#fee97d"/><path d="m127.729 378.585 3.141-16.854 3.309-17.756c.46-2.45 1.65-4.71 3.41-6.48l24.777-24.777 29.81-29.81-32.336-.196-19.686-.119-28.42 28.42c-1.76 1.77-2.95 4.03-3.41 6.48l-6.45 34.61c-.47 2.53.33 5.12 2.15 6.94l24.354 24.354c-.71-1.476-.957-3.155-.649-4.812z" fill="#fedf30"/><path d="m197.495 283.592-84.46 84.46 25.24 25.24 109.7-109.7z" fill="#fedf30"/><path d="m260.25 162.5 2.835 13.996-12.829 12.828-15.511-1.319 83.576 83.577 25.506-25.506z" fill="#d7d0d6"/><path d="m242.546 169.833h36.07v37.006h-36.07z" fill="#c9bfc8" transform="matrix(.707 -.707 .707 .707 -56.851 239.421)"/></g></svg>