<svg id="Capa_1" enable-background="new 0 0 512 512" height="512" viewBox="0 0 512 512" width="512" xmlns="http://www.w3.org/2000/svg"><g><g><path d="m259.564.293-188.055 45.796c-4.622 1.126-7.875 5.266-7.875 10.023v253.377c0 16.378 3.134 32.616 9.368 47.761 17.599 42.759 65.405 120.982 186.269 154.381 1.785.493 3.683.493 5.468 0 120.864-33.399 168.67-111.622 186.269-154.381 6.234-15.145 9.368-31.383 9.368-47.761v-253.377c0-4.757-3.253-8.897-7.875-10.023l-188.056-45.796c-1.603-.391-3.277-.391-4.881 0z" fill="#1785f8"/><path d="m443.319 43.849-216.067 216.066c-3.817 3.817-3.817 9.996 0 13.802l14.4 14.4-26.202 26.203-11.221-11.22c-2.996-2.995-7.916-3.3-11-.396-3.191 3.005-3.248 8.03-.171 11.107l4.874 4.874-31.47 31.47c-7.798 7.799-13.462 17.485-16.422 28.12l.722.732-23.808 23.808c-2.259 2.259-3.27 5.488-2.703 8.634l1.455 8.046-8.118 8.118c3.342 3.744 6.911 7.479 10.687 11.202l8.376-8.376 8.045 1.454c3.147.569 6.374-.441 8.635-2.702l23.653-23.653.474.485c10.893-2.909 20.827-8.634 28.801-16.608l31.202-31.202 3.984 3.984c1.511 1.511 3.491 2.266 5.47 2.266 1.92 0 3.841-.711 5.333-2.131 3.158-3.008 2.988-8.226-.096-11.31l-10.321-10.322 26.198-26.206 14.4 14.4c3.806 3.817 9.985 3.817 13.802 0l128.912-128.912v98.976c0 16.381-3.136 32.617-9.366 47.76-17.67 42.933-65.771 121.578-187.648 154.762 9.801 3.715 20.165 7.113 31.133 10.146 1.79.495 3.697.495 5.487 0 120.855-33.401 168.656-111.621 186.255-154.376 6.241-15.143 9.366-31.39 9.366-47.76v-253.382c0-4.756-3.252-8.895-7.872-10.022z" fill="#1576f7"/><path d="m265.11 465.973c-2.015.641-4.195.641-6.21 0-52.987-16.851-94.257-45.348-122.819-84.848-5.399-7.467-9.874-14.724-13.567-21.477-10.071-18.419-15.208-39.127-15.208-60.12v-209.104c0-4.757 3.253-8.897 7.875-10.022l144.383-35.161c1.604-.391 3.278-.391 4.882 0l144.382 35.161c4.622 1.126 7.875 5.266 7.875 10.022v224.307c0 6.151-1.036 12.254-3.095 18.05-4.063 11.431-11.835 29.197-25.68 48.343-28.561 39.501-69.831 67.998-122.818 84.849z" fill="#f2fbff"/><path d="m379.415 73.237v34.515l-152.163 152.163c-3.817 3.817-3.817 9.996 0 13.802l14.4 14.4-26.202 26.203-11.221-11.22c-2.996-2.995-7.916-3.3-11-.396-3.191 3.005-3.248 8.03-.171 11.107l4.874 4.874-31.47 31.47c-7.798 7.799-13.462 17.485-16.422 28.12l.722.732-9.274 9.274c7.716 9.769 16.257 18.826 25.624 27.13l9.872-9.872.474.485c10.893-2.909 20.827-8.634 28.801-16.608l31.202-31.202 3.984 3.984c1.511 1.511 3.491 2.266 5.47 2.266 1.92 0 3.841-.711 5.333-2.131 3.158-3.008 2.988-8.226-.096-11.31l-10.321-10.323 26.198-26.206 14.4 14.4c3.806 3.817 9.985 3.817 13.802 0l62.55-62.55c7.614-7.614 20.633-2.221 20.633 8.547v29.319c0 6.148-1.032 12.255-3.095 18.042-4.064 11.44-11.832 29.203-25.675 48.348-28.264 39.085-68.959 67.391-121.134 84.308 9.354 4.124 19.152 7.814 29.392 11.069 2.014.64 4.19.64 6.204-.001 52.992-16.855 94.263-45.351 122.818-84.855 13.843-19.145 21.621-36.909 25.685-48.338 2.053-5.797 3.095-11.904 3.095-18.052v-224.303c0-4.756-3.252-8.896-7.873-10.022z" fill="#c9f0fd"/></g><g><g><g><path d="m16.159 509.617c-1.98 0-3.96-.755-5.47-2.266-3.022-3.021-3.022-7.92 0-10.941l117.565-117.565c3.021-3.021 7.92-3.021 10.941 0 3.022 3.021 3.022 7.92 0 10.941l-117.565 117.565c-1.511 1.511-3.491 2.266-5.471 2.266z" fill="#c9f0fd"/></g><path d="m184.176 360.243-30.841 30.841c-2.262 2.262-5.49 3.272-8.638 2.703l-10.65-1.925c-4.008-.724-7.145-3.861-7.869-7.869l-1.925-10.65c-.569-3.148.441-6.376 2.703-8.638l30.841-30.841z" fill="#68dbf9"/><path d="m157.797 333.864-20.301 20.301 5.136 5.136c3.472 3.472 3.472 9.101 0 12.573l-4.251 4.251c-2.261 2.261-5.488 3.28-8.641 2.707l-4.65-.839 1.083 5.998c.732 4.013 3.864 7.144 7.877 7.877l10.647 1.921c3.153.563 6.38-.446 8.641-2.707l30.837-30.837z" fill="#21c1f8"/><path d="m207.787 260.286h62.629v37.306h-62.629z" fill="#84aee1" transform="matrix(.707 -.707 .707 .707 -127.208 250.77)"/><path d="m249.112 295.308 25.323-25.323-26.379-26.379-25.322 25.323c8.792 8.793 17.585 17.586 26.378 26.379z" fill="#5591d6"/><path d="m500.554 86.464-204.324 204.325c-3.812 3.812-9.992 3.812-13.804 0l-55.174-55.174c-3.812-3.812-3.812-9.992 0-13.804l204.325-204.325c4.028-4.028 10.56-4.028 14.588 0l54.39 54.39c4.028 4.028 4.028 10.56-.001 14.588z" fill="#d3e1f4"/><path d="m500.556 86.463-204.325 204.325c-3.811 3.811-9.989 3.811-13.8 0l-19.352-19.352c3.832 3.461 9.756 3.344 13.45-.35l211.619-211.619 12.408 12.408c4.028 4.029 4.028 10.56 0 14.588z" fill="#b3cbea"/><g><path d="m318.564 268.467-10.945 10.934-31.833-31.833c-3.022-3.022-3.022-7.922 0-10.945 3.022-3.022 7.912-3.022 10.934 0z" fill="#84aee1"/></g><path d="m150.044 340.165c2.961-10.631 8.617-20.317 16.42-28.12l36.492-36.492 39.532 39.532-36.227 36.227c-7.972 7.972-17.905 13.699-28.798 16.605z" fill="#c9f0fd"/><path d="m242.485 315.087-36.22 36.22c-7.972 7.972-17.908 13.704-28.799 16.613l-17.77-17.993c10.828-2.919 20.7-8.63 28.63-16.56l36.22-36.22z" fill="#9ce6fb"/><g><path d="m246.916 327.248c-1.98 0-3.96-.756-5.47-2.266l-48.387-48.387c-3.022-3.021-3.022-7.92 0-10.941 3.021-3.021 7.92-3.021 10.941 0l48.387 48.387c3.022 3.021 3.022 7.92 0 10.941-1.511 1.511-3.491 2.266-5.471 2.266z" fill="#68dbf9"/></g><g><path d="m342.94 244.081-10.945 10.945-19.702-19.703c-3.022-3.022-3.022-7.922 0-10.945 3.022-3.022 7.922-3.022 10.945 0z" fill="#84aee1"/></g><g><path d="m367.325 219.695-10.945 10.945-19.702-19.702c-3.022-3.022-3.022-7.922 0-10.945 3.022-3.012 7.922-3.012 10.945 0z" fill="#84aee1"/></g><g><path d="m391.7 195.32-10.945 10.945-19.702-19.702c-3.022-3.022-3.022-7.922 0-10.945 3.022-3.022 7.922-3.022 10.945 0z" fill="#84aee1"/></g><g><path d="m416.086 170.945-10.945 10.934-31.833-31.833c-3.022-3.022-3.022-7.922 0-10.945 3.022-3.022 7.922-3.022 10.934 0z" fill="#84aee1"/></g><g><path d="m440.461 146.559-10.945 10.945-19.702-19.702c-3.012-3.022-3.012-7.922 0-10.945 3.022-3.022 7.922-3.022 10.945 0z" fill="#84aee1"/></g><g><path d="m464.847 122.173-10.945 10.945-19.702-19.702c-3.022-3.022-3.022-7.922 0-10.945s7.922-3.022 10.945 0z" fill="#84aee1"/></g><g><path d="m489.222 97.798-10.934 10.945-19.713-19.713c-3.012-3.012-3.012-7.912 0-10.934 3.022-3.022 7.922-3.022 10.945 0z" fill="#84aee1"/></g></g></g></g></svg>