<svg id="icons" enable-background="new 0 0 64 64" height="512" viewBox="0 0 64 64" width="512" xmlns="http://www.w3.org/2000/svg"><g><g><g><path d="m15 54.999h40 2v5h-44v-5z" fill="#656d78"/></g><g><path d="m9 22.999c0-11.05 8.95-20 20-20h6c-11.05 0-20 8.95-20 20v32h-2-4z" fill="#aab2bd"/></g><g><path d="m13 54.999v5h-6v-5h2z" fill="#545c66"/></g><g><path d="m35 2.999c-11.05 0-20 8.95-20 20v32h40v-32c0-11.05-8.95-20-20-20z" fill="#ccd1d9"/></g></g><g><path d="m63 61.001h-62c-.553 0-1-.447-1-1s.447-1 1-1h62c.553 0 1 .447 1 1s-.447 1-1 1z" fill="#a0d468"/></g><g><g><path d="m22.999 35.001c-.553 0-1-.447-1-1v-10c0-.553.447-1 1-1s1 .447 1 1v10c0 .553-.447 1-1 1z" fill="#656d78"/></g><g><path d="m25.999 31.002c-.553 0-1-.448-1-1s.447-1 1-1c1.103 0 2-.897 2-2.001s-.897-2-2-2c-.553 0-1-.447-1-1s.447-1 1-1c2.206 0 4 1.795 4 4 0 2.206-1.794 4.001-4 4.001z" fill="#656d78"/></g><g><path d="m25.999 25.001h-3c-.553 0-1-.447-1-1s.447-1 1-1h3c.553 0 1 .447 1 1s-.447 1-1 1z" fill="#656d78"/></g><g><path d="m25.999 31.002h-3c-.553 0-1-.448-1-1s.447-1 1-1h3c.553 0 1 .448 1 1s-.447 1-1 1z" fill="#656d78"/></g><g><path d="m42.999 35.001c-.553 0-1-.447-1-1v-10c0-.553.447-1 1-1s1 .447 1 1v10c0 .553-.447 1-1 1z" fill="#656d78"/></g><g><path d="m45.999 31.002c-.553 0-1-.448-1-1s.447-1 1-1c1.103 0 2-.897 2-2.001s-.897-2-2-2c-.553 0-1-.447-1-1s.447-1 1-1c2.206 0 4 1.795 4 4 0 2.206-1.794 4.001-4 4.001z" fill="#656d78"/></g><g><path d="m45.999 25.001h-3c-.553 0-1-.447-1-1s.447-1 1-1h3c.553 0 1 .447 1 1s-.447 1-1 1z" fill="#656d78"/></g><g><path d="m45.999 31.002h-3c-.553 0-1-.448-1-1s.447-1 1-1h3c.553 0 1 .448 1 1s-.447 1-1 1z" fill="#656d78"/></g><g><path d="m29.001 35.001c-.304 0-.604-.138-.801-.399l-3.001-3.999c-.331-.441-.242-1.068.199-1.4.444-.331 1.069-.242 1.4.199l3.002 3.998c.331.442.242 1.069-.199 1.4-.181.136-.391.201-.6.201z" fill="#656d78"/></g><g><path d="m35.999 35.001c-.553 0-1-.447-1-1v-10c0-.553.447-1 1-1s1 .447 1 1v10c0 .553-.447 1-1 1z" fill="#656d78"/></g><g><path d="m38.999 25.001h-6c-.553 0-1-.447-1-1s.447-1 1-1h6c.553 0 1 .447 1 1s-.447 1-1 1z" fill="#656d78"/></g><g><path d="m38.999 35.001h-6c-.553 0-1-.447-1-1s.447-1 1-1h6c.553 0 1 .447 1 1s-.447 1-1 1z" fill="#656d78"/></g></g><g><path d="m49 45.004h-28c-.553 0-1-.447-1-1s.447-1 1-1h28c.553 0 1 .447 1 1s-.447 1-1 1z" fill="#aab2bd"/></g><g><path d="m49 42.001h-28c-.553 0-1-.447-1-1s.447-1 1-1h28c.553 0 1 .447 1 1s-.447 1-1 1z" fill="#aab2bd"/></g><g><path d="m40 48.004h-10c-.553 0-1-.447-1-1s.447-1 1-1h10c.553 0 1 .447 1 1s-.447 1-1 1z" fill="#aab2bd"/></g></g></svg>